<svg width="84" height="56" viewBox="0 0 84 56" fill="#a855f7" xmlns="http://www.w3.org/2000/svg">
<rect x="15.573" y="19.8202" width="14" height="35" />
<rect x="44" y="27.1068" width="14" height="28" />
<path d="M73 -4.80825e-07C79.0751 -2.15273e-07 84 4.92487 84 11L84 14L-6.11959e-07 14L0 -3.67176e-06L73 -4.80825e-07Z" />
<path d="M69.8427 0L72.8427 0C78.9178 0 83.8427 4.92487 83.8427 11V44C83.8427 50.0751 78.9178 55 72.8427 55H69.8427L69.8427 0Z" />
<path d="M84 41.0562L84 44.0562C84 50.1313 79.0751 55.0562 73 55.0562L44 55.0562L44 41.0562L84 41.0562Z" />
</svg>
